<svg width="14" height="14" viewBox="0 0 14 14" fill="none" xmlns="http://www.w3.org/2000/svg">
<path d="M12.621 5.24377L8.7111 4.66073L6.96327 1.02503C6.91553 0.925486 6.837 0.844904 6.73998 0.795922C6.49667 0.672678 6.201 0.775381 6.07935 1.02503L4.33152 4.66073L0.421611 5.24377C0.313816 5.25957 0.215259 5.31171 0.139802 5.39072C0.048579 5.48692 -0.00168917 5.61635 4.3343e-05 5.75056C0.00177586 5.88477 0.0553674 6.01279 0.149042 6.10648L2.97791 8.93635L2.30958 12.9323C2.2939 13.0253 2.30393 13.1209 2.33851 13.2083C2.3731 13.2957 2.43086 13.3714 2.50525 13.4268C2.57964 13.4823 2.66768 13.5152 2.75939 13.5219C2.8511 13.5286 2.9428 13.5088 3.02411 13.4648L6.52131 11.5782L10.0185 13.4648C10.114 13.5169 10.2249 13.5343 10.3311 13.5153C10.5991 13.4679 10.7792 13.2072 10.733 12.9323L10.0647 8.93635L12.8936 6.10648C12.9706 6.02906 13.0214 5.92793 13.0368 5.81733C13.0784 5.54082 12.8905 5.28485 12.621 5.24377Z" fill="#FFB742"/>
</svg>
